<svg height="512" viewBox="0 0 58 58" width="512" xmlns="http://www.w3.org/2000/svg"><g id="Page-1" fill="none" fill-rule="evenodd"><g id="003---Book" fill-rule="nonzero"><path id="Shape" d="m8.6 30.33h-2.78c-.47835409.0008536-.88911334.3403587-.98.81l-4.38 22.48c-.11364817.5872358.04149794 1.1945136.42288718 1.6552783.38138925.4607646.94898395.7266458 1.54711282.7247217h21.57c0 1.1 2.24 2 5 2s5-.9 5-2h21.57c.5981289.0019241 1.1657236-.2639571 1.5471128-.7247217.3813893-.4607647.5365354-1.0680425.4228872-1.6552783l-4.38-22.48c-.0908867-.4696413-.5016459-.8091464-.98-.81z" fill="#e64c3c"/><path id="Shape" d="m29 45.09v6.91c-1.4630104-.6354613-2.9877765-1.1180247-4.55-1.44-5.9383097-1.2910315-12.1133417-.9769298-17.89.91-.33203837.1012932-.69283455.0246037-.95496715-.2029843-.26213261-.227588-.38871138-.5740457-.33503285-.9170157l3.33-20.02.28-1.69c.07166701-.4288869.4102856-.7634743.84-.83 1.13-.17 2.23-.31 3.29-.41-.0286964 4.6222054 1.2542914 9.157741 3.7 13.08 2.41 3.66 6.63 6.58 11.28 5.01.26-.09.63-.27 1.01-.4z" fill="#f5efca"/><path id="Shape" d="m51.44 51.47c-5.7766583-1.8869298-11.9516903-2.2010315-17.89-.91-1.5622235.3219753-3.0869896.8045387-4.55 1.44v-6.91c.38.13.75.31 1.01.4 4.65 1.57 8.87-1.35 11.28-5.01 2.4457086-3.922259 3.7286964-8.4577946 3.7-13.08 1.06.1 2.16.24 3.29.41.4297144.0665257.768333.4011131.84.83l.28 1.69 3.33 20.02c.0536785.34297-.0729002.6894277-.3350328.9170157-.2621327.227588-.6229288.3042775-.9549672.2029843z" fill="#f9eab0"/><path id="Shape" d="m34 56c0 1.1-2.24 2-5 2s-5-.9-5-2l.45-5.44c1.5622235.3219753 3.0869896.8045387 4.55 1.44 1.4630104-.6354613 2.9877765-1.1180247 4.55-1.44z" fill="#c03a2b"/><path id="Shape" d="m45 27.15c.0016622.0834583-.0016771.1669411-.01.25.0286964 4.6222054-1.2542914 9.157741-3.7 13.08-2.41 3.66-6.63 6.58-11.28 5.01-.26-.09-.63-.27-1.01-.4-.38.13-.75.31-1.01.4-4.23 1.43-8.11-.86-10.58-4.05-.25-.31-.48-.63-.7-.96-.13-.2-.26-.4-.39-.61-2.1811615-3.7930875-3.3229214-8.0945216-3.31-12.47-.0083229-.0830589-.0116622-.1665417-.01-.25-.0744173-3.7479777 1.5683126-7.3244143 4.46-9.71 1.7882484-1.3703728 4.0113277-2.0486606 6.26-1.91.9301777.0560031 1.8436515.2725302 2.7.64.8335494.4545709 1.6953068.8553883 2.58 1.2.8846932-.3446117 1.7464506-.7454291 2.58-1.2.8563485-.3674698 1.7698223-.5839969 2.7-.64 2.0424634-.1277953 4.070187.4204281 5.77 1.56.17.11.33.23.49.35 2.8916874 2.3855857 4.5344173 5.9620223 4.46 9.71z" fill="#24ae5f"/><path id="Shape" d="m41.5 23.15c.0016622.0834583-.0016771.1669411-.01.25-.06 4.52-.72 9.57-3.7 13.08-5.77 6.82-14.72 6.26-20.38 4.96-.25-.31-.48-.63-.7-.96-.13-.2-.26-.4-.39-.61-2.1811615-3.7930875-3.3229214-8.0945216-3.31-12.47-.0083229-.0830589-.0116622-.1665417-.01-.25-.0744173-3.7479777 1.5683126-7.3244143 4.46-9.71 1.7882484-1.3703728 4.0113277-2.0486606 6.26-1.91.9301777.0560031 1.8436515.2725302 2.7.64.8335494.4545709 1.6953068.8553883 2.58 1.2.8846932-.3446117 1.7464506-.7454291 2.58-1.2.8563485-.3674698 1.7698223-.5839969 2.7-.64 2.0424634-.1277953 4.070187.4204281 5.77 1.56.9613318 1.8748534 1.4585945 3.9530685 1.45 6.06z" fill="#4fba6f"/><path id="Shape" d="m17 28.123c-.5522847 0-1-.4477153-1-1-.0668524-2.8135874 1.1470158-5.5054321 3.3-7.318.2822398-.2191825.6599726-.2711422.9909101-.1363066s.5648024.4359819.6135.79-.0951703.7071242-.3774101.9263066c-1.6672692 1.4291261-2.5966115 3.5371555-2.527 5.732.0015961.2652179-.1022331.5202067-.2886453.7088694-.1864122.1886626-.4401367.2955441-.7053547.2971306z" fill="#7ed09e"/><path id="Shape" d="m29 22c-.5522847 0-1-.4477153-1-1-.066474-5.0430902-2.4904589-9.7641246-6.55-12.757-.4614339-.30375662-.5892566-.92406608-.2855-1.38549998.3037566-.46143389.9240661-.58925661 1.3855-.28550002 4.64305 3.34525375 7.4108468 8.7054915 7.45 14.428 0 .5522847-.4477153 1-1 1z" fill="#cb8252"/><path id="Shape" d="m36.155 8.91c-2.482 2.481-4.262 1.729-5.824.167s-2.315-3.343.167-5.824c1.7420437-1.78881317 4.0512679-2.91709171 6.533-3.192.6234877-.03194839 1.2313172.20178118 1.672768.643232s.6751804 1.04928027.643232 1.672768c-.2753938 2.4815912-1.4035963 4.79065992-3.192 6.533z" fill="#4fba6f"/><path id="Shape" d="m27.33 14.75c-.3220716-.0001345-.6243643-.1553829-.8121081-.4170744-.1877437-.2616914-.2379548-.5977893-.1348919-.9029256 1.2674917-3.70561191 3.7902896-6.85168107 7.132-8.894.3126003-.17540811.6951745-.17008536 1.0027739.0139516.3075993.18403695.4931681.51863462.4863984.87702147-.0067697.35838684-.2048422.68573779-.5191723.85802693-2.9124867 1.79295976-5.1077594 4.5463346-6.207 7.785-.1373377.4066133-.5188194.68025-.948.68z" fill="#cb8252"/></g></g></svg>